<svg width="116" height="97" viewBox="0 0 116 97" fill="none" xmlns="http://www.w3.org/2000/svg">
<path d="M70.1072 28.3118C70.1072 28.3118 90.5365 13.4688 99.5963 25.7467C102.238 29.3274 103.349 37.7933 106.643 39.9969C109.937 42.2005 116 43.376 116 43.376L108.202 44.8447L112.939 49.5949C112.939 49.5949 102.758 48.5526 99.7875 45.3834C94.1888 39.4094 94.8487 30.7057 91.972 28.244C85.7621 22.9307 76.4861 28.3118 70.1072 28.3118Z" fill="#FBB040"/>
<g style="mix-blend-mode:multiply">
<path d="M70.1072 28.3122C70.1072 28.3122 79.7292 21.3227 88.6949 20.9053C88.6145 22.7961 87.7944 24.6679 86.1272 25.9409C80.7644 25.536 74.6892 28.3122 70.1072 28.3122Z" fill="#939598"/>
</g>
<path opacity="0.3" d="M94.4467 33.9979C94.0101 32.3663 93.6128 30.906 93.0768 29.7976C94.9827 27.9758 96.0417 25.4838 96.6939 22.9229C97.815 23.6931 98.7966 24.6484 99.5963 25.7478C100.311 26.7182 100.914 28.0519 101.48 29.5176C100.111 31.94 97.3979 33.2231 94.4467 33.9979Z" fill="url(#paint0_linear_2143_8730)"/>
<path d="M101.34 29.1895H14.4369V96.0017H101.34V29.1895Z" fill="#F0F0F0"/>
<path d="M29.5248 29.1895H25.5074V96.0017H29.5248V29.1895Z" fill="#FBB040"/>
<g style="mix-blend-mode:multiply">
<path d="M101.34 29.1895H14.4369V44.9832H101.34V29.1895Z" fill="#A7A9AC"/>
</g>
<g style="mix-blend-mode:multiply">
<path d="M40.596 29.1895H14.4369V96.0017H40.596V29.1895Z" fill="#BCBEC0"/>
</g>
<path d="M102.428 28.3125H13.3494V42.9658H102.428V28.3125Z" fill="#E6E7E8"/>
<path d="M28.8149 28.3125H24.6969V42.9658H28.8149V28.3125Z" fill="#FBB040"/>
<g style="mix-blend-mode:multiply">
<path d="M40.163 28.3125H13.3494V42.9658H40.163V28.3125Z" fill="#BCBEC0"/>
</g>
<g style="mix-blend-mode:multiply">
<path d="M23.324 28.3125C22.947 33.7186 25.4408 42.9093 23.5765 46.7076C21.611 50.7093 16.6675 54.8537 16.6675 54.8537L24.3919 52.8618L22.2912 60.3876C22.2912 60.3876 31.0151 54.4743 32.245 49.5415C34.3016 41.298 30.9347 32.9563 31.1658 28.3143L23.324 28.3125Z" fill="#A7A9AC"/>
</g>
<path d="M44.0387 28.3128C44.0387 28.3128 24.436 13.4692 15.7413 25.7483C13.2058 29.329 12.1385 37.7949 8.97938 39.9985C5.82028 42.2021 0 43.3764 0 43.3764L7.48262 44.8457L2.93754 49.5954C2.93754 49.5954 12.7055 48.553 15.5579 45.3844C20.9314 39.4099 20.2971 30.7067 23.0578 28.2457C29.0162 22.9317 37.9176 28.3128 44.0387 28.3128Z" fill="#FBB040"/>
<g style="mix-blend-mode:multiply">
<path d="M44.0387 28.3128C44.0387 28.3128 34.8068 21.3227 26.202 20.9053C26.2789 22.7961 27.0663 24.6679 28.6655 25.9415C33.8103 25.536 39.6419 28.3128 44.0387 28.3128Z" fill="#939598"/>
</g>
<path opacity="0.3" d="M20.683 33.9989C21.0999 32.3667 21.4811 30.9069 21.9993 29.7986C20.1702 27.9761 19.1541 25.4848 18.5287 22.9238C17.4453 23.7 16.5026 24.6552 15.7413 25.7482C15.0545 26.7186 14.4762 28.0523 13.9336 29.5179C15.2475 31.9403 17.8509 33.2235 20.683 33.9989Z" fill="url(#paint1_linear_2143_8730)"/>
<path d="M44.1673 4.06831C41.0172 0.778979 37.6567 -0.863901 34.254 0.462057C33.9399 0.583575 33.6363 0.730742 33.3463 0.902061C26.0352 5.15583 30.7733 22.1888 36.3559 26.4604C42.1566 30.9038 56.4922 25.9555 56.4922 25.9555C53.2861 17.9463 48.9727 9.08971 44.1673 4.06831ZM41.6658 22.3291C38.7318 19.7723 35.7645 14.1236 37.1761 11.3468H37.1791C37.4352 10.834 37.854 10.4201 38.3703 10.1695C38.7872 9.95663 39.2953 9.81274 39.9087 9.75982C41.6086 9.60344 43.2584 10.0958 44.8225 11.0679C48.7803 13.5248 52.2021 19.0427 54.5309 24.9073C54.5255 24.9061 45.517 25.6886 41.6652 22.3291H41.6658Z" fill="#FBB040"/>
<g style="mix-blend-mode:multiply">
<path d="M40.6985 27.1327C33.9139 25.8246 34.8019 17.5192 35.6269 14.897C36.5953 11.8307 37.1754 11.3467 37.1754 11.3467C35.7638 14.1247 38.7312 19.7716 41.6651 22.3289C45.5169 25.6878 54.5255 24.9059 54.5255 24.9059C55.7084 26.5506 47.7582 28.4955 40.6985 27.1327Z" fill="#939598"/>
</g>
<path opacity="0.3" d="M44.8195 11.0666C43.2554 10.0962 41.6032 9.60387 39.9057 9.75846C39.2923 9.81317 38.7824 9.95527 38.3673 10.1681C37.3291 6.52919 34.9723 3.02521 33.3463 0.900108C33.6363 0.728789 33.9399 0.581622 34.254 0.460104C37.6567 -0.865855 41.0171 0.777026 44.1673 4.06635C44.7778 6.69568 44.8493 9.41181 44.8195 11.0666Z" fill="url(#paint2_linear_2143_8730)"/>
<path d="M59.2844 25.9555C59.2844 25.9555 73.6201 30.9038 79.4207 26.4604C85.0034 22.1882 89.742 5.15583 82.4303 0.902061C82.1406 0.730745 81.8372 0.583578 81.5232 0.462057C78.1205 -0.863901 74.7595 0.778979 71.6093 4.06831C66.8046 9.08971 62.4906 17.9463 59.2844 25.9555ZM61.2499 24.9061C63.5764 19.0415 66.9981 13.5236 70.9583 11.0668C72.5224 10.0964 74.1746 9.60404 75.8721 9.75863C76.4856 9.81333 76.9954 9.95544 77.4112 10.1683C77.9275 10.4188 78.3463 10.8327 78.6024 11.3456C80.0146 14.1236 77.0466 19.7705 74.1133 22.3279C70.2597 25.6886 61.2511 24.9061 61.2511 24.9061H61.2499Z" fill="#FBB040"/>
<g style="mix-blend-mode:multiply">
<path d="M75.0781 27.1327C81.8627 25.8246 80.9747 17.5192 80.1503 14.897C79.1819 11.8307 78.6018 11.3467 78.6018 11.3467C80.0139 14.1247 77.046 19.7716 74.1127 22.3289C70.2603 25.6878 61.2517 24.9059 61.2517 24.9059C60.0688 26.5506 68.0184 28.4955 75.0781 27.1327Z" fill="#939598"/>
</g>
<path opacity="0.3" d="M70.9572 11.0666C72.5212 10.0962 74.1734 9.60387 75.8709 9.75846C76.4844 9.81317 76.9942 9.95527 77.41 10.1681C78.4481 6.52919 80.8049 3.02521 82.4303 0.900108C82.1406 0.728792 81.8372 0.581625 81.5232 0.460104C78.1205 -0.865855 74.7595 0.777026 71.6093 4.06635C70.9994 6.69568 70.9268 9.41181 70.9572 11.0666Z" fill="url(#paint3_linear_2143_8730)"/>
<path d="M61.7752 27.0916C63.4067 25.4629 63.4067 22.8223 61.7752 21.1936C60.1438 19.5649 57.4987 19.5649 55.8672 21.1936C54.2358 22.8223 54.2358 25.4629 55.8672 27.0916C57.4987 28.7203 60.1438 28.7203 61.7752 27.0916Z" fill="#FBB040"/>
<g style="mix-blend-mode:multiply">
<path d="M58.821 25.3551C57.1658 25.3551 55.6822 24.8242 54.6518 23.9834C54.6518 24.0357 54.644 24.088 54.644 24.141C54.644 25.2471 55.0842 26.3079 55.8676 27.09C56.6511 27.8721 57.7137 28.3115 58.8216 28.3115C59.9296 28.3115 60.9922 27.8721 61.7756 27.09C62.5591 26.3079 62.9992 25.2471 62.9992 24.141C62.9992 24.088 62.9933 24.0357 62.9915 23.9834C61.9599 24.8242 60.4762 25.3551 58.821 25.3551Z" fill="#D1D3D4"/>
</g>
<defs>
<linearGradient id="paint0_linear_2143_8730" x1="97.2782" y1="22.9229" x2="97.2782" y2="33.9979" gradientUnits="userSpaceOnUse">
<stop stop-color="white"/>
<stop offset="1" stop-color="#B6B6B6"/>
</linearGradient>
<linearGradient id="paint1_linear_2143_8730" x1="17.9665" y1="22.9238" x2="17.9665" y2="33.9989" gradientUnits="userSpaceOnUse">
<stop stop-color="white"/>
<stop offset="1" stop-color="#B6B6B6"/>
</linearGradient>
<linearGradient id="paint2_linear_2143_8730" x1="39.0857" y1="0" x2="39.0857" y2="11.0666" gradientUnits="userSpaceOnUse">
<stop stop-color="white"/>
<stop offset="1" stop-color="#B6B6B6"/>
</linearGradient>
<linearGradient id="paint3_linear_2143_8730" x1="76.6909" y1="0" x2="76.6909" y2="11.0666" gradientUnits="userSpaceOnUse">
<stop stop-color="white"/>
<stop offset="1" stop-color="#B6B6B6"/>
</linearGradient>
</defs>
</svg>
